<?xml version="1.0" encoding="iso-8859-1"?>
<!-- Uploaded to: SVG Repo, www.svgrepo.com, Generator: SVG Repo Mixer Tools -->
<!DOCTYPE svg PUBLIC "-//W3C//DTD SVG 1.1//EN" "http://www.w3.org/Graphics/SVG/1.1/DTD/svg11.dtd">
<svg fill="#000000" height="800px" width="800px" version="1.1" id="Capa_1" xmlns="http://www.w3.org/2000/svg" xmlns:xlink="http://www.w3.org/1999/xlink" 
	 viewBox="0 0 440 440" xml:space="preserve">
<g>
	<path d="M432.5,0h-128c-3.313,0-6,2.686-6,6v43h-157V6c0-3.314-2.686-6-6-6H7.5c-3.314,0-6,2.686-6,6v428c0,3.314,2.686,6,6,6h425
		c3.313,0,6-2.686,6-6V6C438.5,2.686,435.814,0,432.5,0z M129.5,428h-116V12h116V428z M298.5,61v367H284v-92c0-3.313-2.687-6-6-6
		H162c-3.313,0-6,2.687-6,6v92h-14.5V61H298.5z M236.5,342v10h-33v-10H236.5z M272,342v10h-23.5v-10H272z M191.5,352H168v-10h23.5
		V352z M168,364h23.5v64H168V364z M203.5,364h33v64h-33V364z M248.5,364H272v64h-23.5V364z M426.5,428h-116V12h116V428z"/>
	<path d="M162,313h116c3.313,0,6-2.687,6-6v-36.526c0-3.313-2.687-6-6-6H162c-3.313,0-6,2.687-6,6V307
		C156,310.313,158.686,313,162,313z M203.5,301v-24.526h33V301H203.5z M272,301h-23.5v-24.526H272V301z M168,276.474h23.5V301H168
		V276.474z"/>
	<path d="M162,250.842h116c3.313,0,6-2.687,6-6v-36.526c0-3.313-2.687-6-6-6H162c-3.313,0-6,2.687-6,6v36.526
		C156,248.155,158.686,250.842,162,250.842z M203.5,238.842v-24.526h33v24.526H203.5z M272,238.842h-23.5v-24.526H272V238.842z
		 M168,214.316h23.5v24.526H168V214.316z"/>
	<path d="M162,188.684h116c3.313,0,6-2.687,6-6v-36.526c0-3.313-2.687-6-6-6H162c-3.313,0-6,2.687-6,6v36.526
		C156,185.997,158.686,188.684,162,188.684z M203.5,176.684v-24.526h33v24.526H203.5z M272,176.684h-23.5v-24.526H272V176.684z
		 M168,152.158h23.5v24.526H168V152.158z"/>
	<path d="M162,126.526h116c3.313,0,6-2.687,6-6V84c0-3.313-2.687-6-6-6H162c-3.313,0-6,2.687-6,6v36.526
		C156,123.839,158.686,126.526,162,126.526z M203.5,114.526V90h33v24.526H203.5z M272,114.526h-23.5V90H272V114.526z M168,90h23.5
		v24.526H168V90z"/>
	<path d="M53,404h37c3.313,0,6-2.687,6-6V39c0-3.313-2.687-6-6-6H53c-3.313,0-6,2.687-6,6v359C47,401.313,49.686,404,53,404z
		 M59,392v-32.875h25V392H59z M84,134.75v32.875H59V134.75H84z M59,122.75V89.875h25v32.875H59z M84,179.625V212.5H59v-32.875H84z
		 M84,224.5v32.875H59V224.5H84z M84,269.375v32.875H59v-32.875H84z M84,314.25v32.875H59V314.25H84z M84,45v32.875H59V45H84z"/>
	<path d="M350,404h37c3.313,0,6-2.687,6-6V39c0-3.313-2.687-6-6-6h-37c-3.313,0-6,2.687-6,6v359C344,401.313,346.687,404,350,404z
		 M356,392v-32.875h25V392H356z M381,134.75v32.875h-25V134.75H381z M356,122.75V89.875h25v32.875H356z M381,179.625V212.5h-25
		v-32.875H381z M381,224.5v32.875h-25V224.5H381z M381,269.375v32.875h-25v-32.875H381z M381,314.25v32.875h-25V314.25H381z M381,45
		v32.875h-25V45H381z"/>
</g>
</svg>