<?xml version="1.0" encoding="iso-8859-1"?>
<!-- Uploaded to: SVG Repo, www.svgrepo.com, Generator: SVG Repo Mixer Tools -->
<svg fill="#000000" height="800px" width="800px" version="1.1" id="Layer_1" xmlns="http://www.w3.org/2000/svg" xmlns:xlink="http://www.w3.org/1999/xlink" 
	 viewBox="0 0 512.696 512.696" xml:space="preserve">
<g>
	<g>
		<path d="M70.388,0.696c-6.982,0-11.636,4.655-11.636,11.636v116.364c0,6.982,4.655,11.636,11.636,11.636
			s11.636-4.655,11.636-11.636V12.332C82.024,5.35,77.37,0.696,70.388,0.696z"/>
	</g>
</g>
<g>
	<g>
		<path d="M99.479,175.241c8.145-2.327,16.291-6.982,23.273-13.964c12.8-12.8,19.782-30.255,17.455-47.709l-8.145-59.345
			c-1.164-5.818-2.327-32.582-3.491-41.891c0-6.982-5.818-11.636-12.8-10.473c-5.818-1.164-10.473,4.655-10.473,11.636
			c0,3.491,2.327,36.073,3.491,43.055l8.145,60.509c1.164,10.473-2.327,20.945-10.473,27.927c-3.491,3.491-9.309,6.982-13.964,8.145
			c-9.309,2.327-16.291,8.145-22.109,15.127c-5.818-6.982-12.8-11.636-22.109-15.127c-5.818-1.164-10.473-4.655-13.964-8.145
			c-8.146-6.982-11.636-17.455-10.473-27.927l8.146-60.509c1.164-6.982,3.491-39.564,3.491-43.055c0-6.982-4.655-12.8-10.473-12.8
			c-6.982,0-12.8,4.655-12.8,10.473c-1.164,10.473-2.327,37.236-3.491,43.055L0.57,113.569
			c-2.327,17.455,4.655,34.909,17.455,47.709c6.982,5.818,13.964,10.473,23.273,13.964c10.473,3.491,17.455,12.8,17.455,23.273
			v81.455c0,3.491,1.164,5.818,3.491,8.146l5.818,5.818c9.309,9.309,13.964,20.945,13.964,33.745v150.109
			c0,6.982-4.655,11.636-11.636,11.636s-11.636-4.655-11.636-11.636V314.878c0-6.982-4.655-11.636-11.636-11.636
			s-11.636,4.655-11.636,11.636v162.909c0,19.782,15.127,34.909,34.909,34.909s34.909-15.127,34.909-34.909V327.678
			c0-18.618-6.982-36.073-20.945-48.873l-2.327-3.491v-76.8C82.024,188.041,89.006,178.732,99.479,175.241z"/>
	</g>
</g>
<g>
	<g>
		<path d="M289.152,207.823c37.236-6.982,60.509-31.418,60.509-65.164c0-2.327-4.655-59.345-9.309-79.127
			c-8.146-38.4-23.273-62.836-72.146-62.836s-64,24.436-72.145,62.836c-4.655,19.782-9.309,76.8-9.309,80.291
			c0,32.582,23.273,57.018,60.509,64c5.818,1.164,9.309,5.818,9.309,11.636v60.509c0,3.491,1.164,5.818,3.491,8.146l5.818,5.818
			c9.309,9.309,13.964,20.945,13.964,33.745v150.109c0,6.982-4.655,11.636-11.636,11.636s-11.636-4.655-11.636-11.636V314.878
			c0-6.982-4.655-11.636-11.636-11.636s-11.636,4.655-11.636,11.636v162.909c0,19.782,15.127,34.909,34.909,34.909
			c19.782,0,34.909-15.127,34.909-34.909V327.678c0-18.618-6.982-36.073-20.945-48.873l-2.327-3.491V219.46
			C279.842,213.641,283.333,208.987,289.152,207.823z M268.206,193.86c-4.655-4.655-10.473-6.982-16.291-8.145
			c-25.6-4.655-41.891-19.782-41.891-40.727c0,0,4.655-58.182,8.146-75.636c8.145-36.073,18.618-45.382,50.036-45.382
			c31.418,0,41.891,9.309,50.036,45.382c3.491,17.455,8.145,74.473,8.145,74.473c0,20.945-15.127,37.236-41.891,41.891
			C278.679,186.878,272.861,190.369,268.206,193.86z"/>
	</g>
</g>
<g>
	<g>
		<path d="M415.988,3.023c-3.491-3.491-8.145-3.491-12.8-2.327c-4.655,3.491-6.982,6.982-6.982,11.636v465.455
			c0,19.782,15.127,34.909,34.909,34.909c19.782,0,34.909-15.127,34.909-34.909V363.751c0-12.8-4.655-24.436-13.964-32.582
			c-4.655-4.655-11.636-4.655-16.291,0c-4.655,4.655-4.655,11.636,0,16.291c4.655,4.655,6.982,10.473,6.982,16.291v114.036
			c0,6.982-4.655,11.636-11.636,11.636s-11.636-4.655-11.636-11.636V40.26c44.218,47.709,69.818,111.709,69.818,178.036v73.309
			h-34.909c-6.982,0-11.636,4.655-11.636,11.636s4.655,11.636,11.636,11.636h46.545c6.982,0,11.636-4.655,11.636-11.636v-86.109
			C512.57,135.678,477.661,57.714,415.988,3.023z"/>
	</g>
</g>
</svg>