<?xml version="1.0" encoding="iso-8859-1"?>
<!-- Uploaded to: SVG Repo, www.svgrepo.com, Generator: SVG Repo Mixer Tools -->
<!DOCTYPE svg PUBLIC "-//W3C//DTD SVG 1.1//EN" "http://www.w3.org/Graphics/SVG/1.1/DTD/svg11.dtd">
<svg fill="#000000" height="800px" width="800px" version="1.1" id="Capa_1" xmlns="http://www.w3.org/2000/svg" xmlns:xlink="http://www.w3.org/1999/xlink" 
	 viewBox="0 0 456 456" xml:space="preserve">
<g>
	<path d="M163.142,126.851h44.812c3.313,0,6-2.687,6-6V50c0-3.313-2.687-6-6-6h-44.812c-3.313,0-6,2.687-6,6v70.851
		C157.142,124.165,159.828,126.851,163.142,126.851z M169.142,75h10.409v39.851h-10.409V75z M191.55,114.851V75h10.403v39.851
		H191.55z M201.953,56v7h-32.812v-7H201.953z"/>
	<path d="M248.047,126.851h44.812c3.313,0,6-2.687,6-6V50c0-3.313-2.687-6-6-6h-44.812c-3.313,0-6,2.687-6,6v70.851
		C242.047,124.165,244.734,126.851,248.047,126.851z M254.047,75h10.406v39.851h-10.406V75z M276.453,114.851V75h10.406v39.851
		H276.453z M286.859,56v7h-32.812v-7H286.859z"/>
	<path d="M163.142,223.234h44.812c3.313,0,6-2.687,6-6v-70.851c0-3.313-2.687-6-6-6h-44.812c-3.313,0-6,2.687-6,6v70.851
		C157.142,220.547,159.828,223.234,163.142,223.234z M169.142,171.667h10.409v39.567h-10.409V171.667z M191.55,211.234v-39.567
		h10.403v39.567H191.55z M201.953,152.383v7.284h-32.812v-7.284H201.953z"/>
	<path d="M248.047,223.234h44.812c3.313,0,6-2.687,6-6v-70.851c0-3.313-2.687-6-6-6h-44.812c-3.313,0-6,2.687-6,6v70.851
		C242.047,220.547,244.734,223.234,248.047,223.234z M254.047,171.667h10.406v39.567h-10.406V171.667z M276.453,211.234v-39.567
		h10.406v39.567H276.453z M286.859,152.383v7.284h-32.812v-7.284H286.859z"/>
	<path d="M163.142,319.617h44.812c3.313,0,6-2.687,6-6v-70.851c0-3.313-2.687-6-6-6h-44.812c-3.313,0-6,2.687-6,6v70.851
		C157.142,316.93,159.828,319.617,163.142,319.617z M169.142,268.333h10.409v39.284h-10.409V268.333z M191.55,307.617v-39.284
		h10.403v39.284H191.55z M201.953,248.766v7.567h-32.812v-7.567H201.953z"/>
	<path d="M248.047,319.617h44.812c3.313,0,6-2.687,6-6v-70.851c0-3.313-2.687-6-6-6h-44.812c-3.313,0-6,2.687-6,6v70.851
		C242.047,316.93,244.734,319.617,248.047,319.617z M254.047,268.333h10.406v39.284h-10.406V268.333z M276.453,307.617v-39.284
		h10.406v39.284H276.453z M286.859,248.766v7.567h-32.812v-7.567H286.859z"/>
	<path d="M163.142,416h44.812c3.313,0,6-2.687,6-6v-70.851c0-3.313-2.687-6-6-6h-44.812c-3.313,0-6,2.687-6,6V410
		C157.142,413.313,159.828,416,163.142,416z M169.142,365h10.409v39h-10.409V365z M191.55,404v-39h10.403v39H191.55z
		 M201.953,345.149V353h-32.812v-7.851H201.953z"/>
	<path d="M353,0H103c-3.314,0-6,2.686-6,6v20c0,3.314,2.686,6,6,6h17.585v418c0,3.314,2.686,6,6,6h202.831c3.313,0,6-2.686,6-6V32
		H353c3.314,0,6-2.686,6-6V6C359,2.686,356.314,0,353,0z M286.859,373.409C285.815,372.531,284.47,372,283,372c-3.313,0-6,2.687-6,6
		v11c0,3.313,2.687,6,6,6c1.47,0,2.815-0.531,3.859-1.409V425h-32.812v-79.85h32.812V373.409z M254.047,437h32.812v7h-32.812V437z
		 M323.416,444h-24.557v-98.85h2.594c3.313,0,6-2.687,6-6s-2.687-6-6-6h-62c-3.313,0-6,2.687-6,6s2.687,6,6,6h2.594V444H132.585V32
		h190.831V444z M347,20H109v-8h238V20z"/>
</g>
</svg>