<?xml version="1.0" encoding="utf-8"?>
<!-- Generator: Adobe Illustrator 24.1.1, SVG Export Plug-In . SVG Version: 6.00 Build 0)  -->
<svg version="1.1" id="Layer_1" xmlns="http://www.w3.org/2000/svg" xmlns:xlink="http://www.w3.org/1999/xlink" x="0px" y="0px"
	 viewBox="0 0 512 512" style="enable-background:new 0 0 512 512;" xml:space="preserve">
<g>
	<path d="M121.3,343.6c-7.4,0-13.5,6-13.5,13.5v0c-11.3-8.5-25.3-13.5-40.4-13.5C30.2,343.6,0,373.8,0,410.9s30.2,67.4,67.4,67.4
		c15.1,0,29.2-5,40.4-13.5v0c0,7.4,6,13.5,13.5,13.5s13.5-6,13.5-13.5V357C134.7,349.6,128.7,343.6,121.3,343.6z M67.4,451.4
		c-22.3,0-40.4-18.1-40.4-40.4s18.1-40.4,40.4-40.4s40.4,18.1,40.4,40.4S89.7,451.4,67.4,451.4z"/>
	<path d="M229.1,343.6c-15.1,0-29.2,5-40.4,13.5V249.2c0-7.4-6-13.5-13.5-13.5c-7.4,0-13.5,6-13.5,13.5v215.6
		c0,7.4,6,13.5,13.5,13.5c7.4,0,13.5-6,13.5-13.5v0c11.3,8.5,25.3,13.5,40.4,13.5c37.1,0,67.4-30.2,67.4-67.4
		S266.2,343.6,229.1,343.6z M229.1,451.4c-22.3,0-40.4-18.1-40.4-40.4s18.1-40.4,40.4-40.4s40.4,18.1,40.4,40.4
		S251.4,451.4,229.1,451.4z"/>
	<path d="M390.8,478.3c-37.1,0-67.4-30.2-67.4-67.4s30.2-67.4,67.4-67.4c11.8,0,23.5,3.1,33.7,9c6.4,3.7,8.6,12,4.9,18.4
		c-3.7,6.4-12,8.6-18.4,4.9c-6.1-3.5-13.1-5.4-20.2-5.4c-22.3,0-40.4,18.1-40.4,40.4c0,22.3,18.1,40.4,40.4,40.4
		c7.1,0,14.1-1.9,20.2-5.4c6.4-3.7,14.7-1.5,18.4,4.9c3.7,6.4,1.5,14.7-4.9,18.4C414.3,475.2,402.6,478.3,390.8,478.3L390.8,478.3z"
		/>
	<path d="M309.9,249.2c-3.4,0-6.9-1.3-9.5-3.9l-80.8-80.8c-5.3-5.3-5.3-13.8,0-19.1c5.3-5.3,13.8-5.3,19.1,0l71.3,71.3L489,37.6
		c5.3-5.3,13.8-5.3,19.1,0c5.3,5.3,5.3,13.8,0,19.1L319.4,245.3C316.8,247.9,313.3,249.2,309.9,249.2L309.9,249.2z"/>
</g>
</svg>
